<svg xmlns="http://www.w3.org/2000/svg" viewBox="0 0 32 32"><path d="M11 17c.827 0 1.5-.673 1.5-1.5S11.827 14 11 14s-1.5.673-1.5 1.5.673 1.5 1.5 1.5zm0-2a.5.5 0 1 1 0 1 .5.5 0 0 1 0-1zM16 17c.827 0 1.5-.673 1.5-1.5S16.827 14 16 14s-1.5.673-1.5 1.5.673 1.5 1.5 1.5zm0-2a.5.5 0 1 1 0 1 .5.5 0 0 1 0-1zM6 22c.827 0 1.5-.673 1.5-1.5S6.827 19 6 19s-1.5.673-1.5 1.5S5.173 22 6 22zm0-2a.5.5 0 1 1 0 1 .5.5 0 0 1 0-1zM11 22c.827 0 1.5-.673 1.5-1.5S11.827 19 11 19s-1.5.673-1.5 1.5.673 1.5 1.5 1.5zm0-2a.5.5 0 1 1 0 1 .5.5 0 0 1 0-1zM6 27c.827 0 1.5-.673 1.5-1.5S6.827 24 6 24s-1.5.673-1.5 1.5S5.173 27 6 27zm0-2a.5.5 0 1 1 0 1 .5.5 0 0 1 0-1zM16 24c-.827 0-1.5.673-1.5 1.5S15.173 27 16 27s1.5-.673 1.5-1.5S16.827 24 16 24zm0 2a.5.5 0 1 1 0-1 .5.5 0 0 1 0 1zM26 22c.827 0 1.5-.673 1.5-1.5S26.827 19 26 19s-1.5.673-1.5 1.5.673 1.5 1.5 1.5zm0-2a.5.5 0 1 1 0 1 .5.5 0 0 1 0-1zM26 17c.827 0 1.5-.673 1.5-1.5S26.827 14 26 14s-1.5.673-1.5 1.5.673 1.5 1.5 1.5zm0-2a.5.5 0 1 1 0 1 .5.5 0 0 1 0-1z"/><path d="M1.5 11.5v16C1.5 28.878 2.622 30 4 30h24c1.378 0 2.5-1.122 2.5-2.5v-20C30.5 6.122 29.378 5 28 5h-2.5V3.5c0-.827-.673-1.5-1.5-1.5s-1.5.673-1.5 1.5V5h-13V3.5C9.5 2.673 8.827 2 8 2s-1.5.673-1.5 1.5V5H4a2.503 2.503 0 0 0-2.5 2.5v4zm28 16c0 .827-.673 1.5-1.5 1.5H4c-.827 0-1.5-.673-1.5-1.5V12h27v15.5zm-6-24a.5.5 0 0 1 1 0v4a.5.5 0 0 1-1 0v-4zm-16 0a.5.5 0 0 1 1 0v4a.5.5 0 0 1-1 0v-4zm-5 4C2.5 6.673 3.173 6 4 6h2.5v1.5C6.5 8.327 7.173 9 8 9s1.5-.673 1.5-1.5V6h13v1.5c0 .827.673 1.5 1.5 1.5s1.5-.673 1.5-1.5V6H28c.827 0 1.5.673 1.5 1.5V11h-27V7.5z"/><path d="M20.293 16.414a.498.498 0 0 0 .708 0L22.414 15a.5.5 0 0 0-.707-.707l-1.061 1.061-.353-.354a.5.5 0 0 0-.707.707l.707.707zM20.293 21.561a.498.498 0 0 0 .708 0l1.414-1.414a.5.5 0 0 0-.707-.707l-1.062 1.06-.354-.354a.5.5 0 0 0-.707.707l.708.708zM15.293 21.561a.498.498 0 0 0 .708 0l1.414-1.414a.5.5 0 0 0-.707-.707l-1.062 1.06-.354-.354a.5.5 0 0 0-.707.707l.708.708zM10.293 26.561a.498.498 0 0 0 .708 0l1.414-1.414a.5.5 0 0 0-.707-.707l-1.062 1.06-.354-.354a.5.5 0 0 0-.707.707l.708.708z"/></svg>