<svg xmlns="http://www.w3.org/2000/svg" width="32" height="32" viewBox="0 0 32 32"><path style="line-height:normal;text-indent:0;text-align:start;text-decoration-line:none;text-decoration-style:solid;text-decoration-color:#000;text-transform:none;block-progression:tb;white-space:normal;isolation:auto;mix-blend-mode:normal;solid-color:#000;solid-opacity:1" fill="#373449" d="M 14.683594 3.5019531 C 14.067083 3.4920266 13.451628 3.5344281 12.84375 3.6269531 C 10.412237 3.9970531 8.1053865 5.1798219 6.3554688 7.1074219 C 2.8556451 10.962422 2.5381735 16.751744 5.5976562 20.964844 C 8.5742417 25.063685 13.956318 26.574236 18.619141 24.6875 C 19.17218 27.428372 21.598862 29.5 24.5 29.5 C 27.807786 29.5 30.5 26.8078 30.5 23.5 C 30.5 20.382484 28.108731 17.812791 25.064453 17.527344 C 26.440008 12.730325 24.413025 7.5688955 20.074219 5.0175781 C 18.391116 4.0278781 16.533125 3.5317328 14.683594 3.5019531 z M 14 4.5175781 L 14 6.5 L 15 6.5 L 15 4.5195312 C 16.570001 4.5978391 18.137734 5.0396033 19.568359 5.8808594 C 20.164786 6.2315792 20.705988 6.6405755 21.203125 7.0898438 L 19.800781 8.4902344 L 20.509766 9.1972656 L 21.910156 7.796875 C 23.460525 9.5102421 24.365384 11.705453 24.480469 14 L 22.498047 14 L 22.498047 15 L 24.484375 15 C 24.441893 15.842573 24.290143 16.689559 24.025391 17.523438 C 20.938903 17.766667 18.5 20.352203 18.5 23.5 C 18.5 23.553496 18.506413 23.605038 18.507812 23.658203 C 17.370615 24.156084 16.183868 24.423127 15 24.482422 L 15 22.498047 L 14 22.498047 L 14 24.480469 C 11.72131 24.366021 9.5223305 23.473368 7.7949219 21.908203 C 7.9803965 21.722709 8.1360895 21.567003 8.4511719 21.251953 C 8.6865459 21.016553 8.9113589 20.789778 9.0585938 20.642578 C 9.1247087 20.576578 9.1689756 20.534159 9.1972656 20.505859 C 9.1972656 20.505859 9.1992188 20.505859 9.1992188 20.505859 C 9.2070187 20.495859 9.2082886 20.496187 9.2128906 20.492188 C 9.2193506 20.482188 9.2237685 20.481516 9.2265625 20.478516 C 9.2245886 20.476567 8.5217376 19.771185 8.5214844 19.771484 L 8.5214844 19.769531 C 8.5214844 19.769531 8.5195312 19.769531 8.5195312 19.769531 C 8.5167113 19.769531 8.5123214 19.779203 8.5058594 19.783203 C 8.5005794 19.793203 8.4996894 19.792828 8.4902344 19.798828 C 8.4619304 19.826828 8.4176794 19.869847 8.3515625 19.935547 C 8.2043239 20.082747 7.9795153 20.309522 7.7441406 20.544922 C 7.4281196 20.86091 7.2710843 21.017987 7.0859375 21.203125 C 6.8489542 20.940611 6.6199406 20.668522 6.4082031 20.376953 C 5.232918 18.758504 4.6116322 16.88622 4.5175781 15 L 6.5 15 L 6.5 14 L 4.5136719 14 C 4.6259294 11.758346 5.4897911 9.5570302 7.0859375 7.7929688 L 8.4902344 9.1972656 L 9.1972656 8.4902344 L 7.7949219 7.0878906 C 9.5398438 5.5070152 11.740988 4.6311339 14 4.5175781 z M 14 8.5 L 14 12.5 L 15 12.5 L 15 8.5 L 14 8.5 z M 14.5 13.5 A 1 1 0 0 0 13.5 14.5 A 1 1 0 0 0 14.5 15.5 A 1 1 0 0 0 15.5 14.5 A 1 1 0 0 0 14.5 13.5 z M 16.5 14 L 16.5 15 L 19.5 15 L 19.5 14 L 16.5 14 z M 24.5 18.5 C 27.267346 18.5 29.5 20.7327 29.5 23.5 C 29.5 26.2674 27.267346 28.5 24.5 28.5 C 21.732654 28.5 19.5 26.2674 19.5 23.5 C 19.5 20.7327 21.732654 18.5 24.5 18.5 z M 24 20 L 24 21.113281 C 24 21.113281 23.998047 21.113281 23.998047 21.113281 C 23.427487 21.332337 23 21.852141 23 22.494141 C 23 23.299841 23.659468 24.015625 24.521484 24.015625 C 24.705778 24.015625 24.802463 24.069684 24.875 24.146484 C 24.94754 24.223484 25 24.341566 25 24.509766 C 25 24.770566 24.761601 25 24.392578 25 C 24.214176 25 24.04555 24.93995 23.933594 24.84375 L 23.556641 24.515625 L 22.902344 25.273438 L 23.28125 25.599609 C 23.492402 25.781913 23.741799 25.89135 24 25.949219 L 24 27.001953 L 25 27.001953 L 25 25.886719 C 25.570729 25.668506 26 25.152666 26 24.509766 C 26 24.120066 25.866224 23.741238 25.601562 23.460938 C 25.336901 23.180638 24.944646 23.015625 24.521484 23.015625 C 24.168591 23.015625 24 22.803941 24 22.494141 C 24 22.234541 24.236936 22.001953 24.605469 22.001953 C 24.778376 22.001953 24.954848 22.063956 25.066406 22.160156 L 25.445312 22.486328 L 26.095703 21.726562 L 25.716797 21.400391 C 25.506812 21.220247 25.258655 21.108777 25 21.050781 L 25 20 L 24 20 z " color="#000" enable-background="accumulate" font-family="sans-serif" font-weight="400" overflow="visible"/></svg>