<svg xmlns="http://www.w3.org/2000/svg" data-name="Layer 1" viewBox="0 0 64 64"><path d="M60.752,37.75a2.985,2.985,0,0,0-3.963.008l-9.331,8.323A8.9,8.9,0,0,1,44.845,47.7l-7.124,2.867a.981.981,0,0,1-1.064-.22L35.643,49.33,42,46.643a1.18,1.18,0,0,0,.123-.062,6.648,6.648,0,0,0,2.316-2.329A2.978,2.978,0,0,0,44.335,41a2.948,2.948,0,0,0-2.977-1.246l-10.714,1.9a10.856,10.856,0,0,0-3.9,1.508l-3.9,2.453A8.89,8.89,0,0,1,18.1,46.984H12V46a1,1,0,0,0-1-1H3a1,1,0,0,0-1,1V61a1,1,0,0,0,1,1h8a1,1,0,0,0,1-1V59.9l7.158-.721a8.841,8.841,0,0,1,3.348.3l3.8,1.091a10.873,10.873,0,0,0,3.01.425h5.409a10.829,10.829,0,0,0,4.532-.987l9.823-4.49a11.007,11.007,0,0,0,3.994-3.115l8.269-10.315a3.006,3.006,0,0,0-.351-4.135ZM10,60H4V47h6ZM59.779,40.842,51.51,51.158a9.015,9.015,0,0,1-3.266,2.547l-9.822,4.489a8.845,8.845,0,0,1-3.7.806H29.312a8.845,8.845,0,0,1-2.457-.347l-3.8-1.091a10.873,10.873,0,0,0-4.1-.37l-6.958.7V48.984h6.1a10.9,10.9,0,0,0,5.807-1.674l3.9-2.454a8.874,8.874,0,0,1,3.188-1.232l10.713-1.9a.967.967,0,0,1,.982.413,1,1,0,0,1,.032,1.1,4.645,4.645,0,0,1-1.564,1.6L33.5,48.064a1,1,0,0,0-.32,1.626l2.058,2.071a2.981,2.981,0,0,0,3.23.666l7.124-2.867a10.907,10.907,0,0,0,3.2-1.987l9.33-8.323a.985.985,0,0,1,1.307,0l.235.208A1.008,1.008,0,0,1,59.779,40.842Z"/><rect width="2" height="2" x="6" y="56"/><rect width="4" height="2" x="53" y="22"/><rect width="4" height="2" x="7" y="22"/><rect width="2" height="4" x="31" y="2"/><rect width="2" height="4" x="10" y="4" transform="rotate(-45 11 6)"/><rect width="4" height="2" x="51" y="5" transform="rotate(-45 53 6)"/><path d="M41.165,17.383l-.824-.138a13.953,13.953,0,0,1-7.632-3.95,1.03,1.03,0,0,0-1.418,0,13.954,13.954,0,0,1-7.631,3.95l-.825.138a1,1,0,0,0-.829,1.1A18.808,18.808,0,0,0,29.9,31.7l1.511,1.111a1,1,0,0,0,1.2-.015L34.5,31.333A18.853,18.853,0,0,0,41.992,18.5l0-.013A1,1,0,0,0,41.165,17.383ZM33.273,29.751l-1.289,1-.9-.664a16.937,16.937,0,0,1-6.955-10.89A15.935,15.935,0,0,0,32,15.377a15.934,15.934,0,0,0,7.868,3.816A16.982,16.982,0,0,1,33.273,29.751Z"/><path d="M15,10V36a1,1,0,0,0,1,1H48a1,1,0,0,0,1-1V10a1,1,0,0,0-1-1H16A1,1,0,0,0,15,10Zm2,1H47V35H17Z"/><path d="M29.6,23.27l-1.2,1.6,2.584,1.93a1,1,0,0,0,1.449-.276l3.875-6.277-1.7-1.051-3.3,5.348Z"/></svg>